<svg xmlns="http://www.w3.org/2000/svg" width="15.5" height="20.5" viewBox="0 0 15.5 20.5">
  <g id="Component_14_5" data-name="Component 14 – 5" transform="translate(0.25 0.25)">
    <path id="Path_599" data-name="Path 599" d="M21,13.994a7.505,7.505,0,0,1-6.875,7.466v1.9a.625.625,0,0,1-1.25,0v-1.9A7.505,7.505,0,0,1,6,13.994a.625.625,0,0,1,1.25,0,6.25,6.25,0,0,0,12.5,0,.625.625,0,0,1,1.25,0ZM13.506,17.72a3.753,3.753,0,0,0,3.75-3.746V7.73a3.75,3.75,0,0,0-7.5,0v6.244A3.753,3.753,0,0,0,13.506,17.72Zm-2.5-9.99a2.5,2.5,0,0,1,5,0v6.244a2.5,2.5,0,0,1-5,0Z" transform="translate(-6 -3.984)" fill="#c7c8c8" stroke="#c7c8c8" stroke-width="0.5"/>
  </g>
</svg>
