<svg xmlns="http://www.w3.org/2000/svg" width="20.799" height="20.941" viewBox="0 0 20.799 20.941">
  <g id="Component_14_5" data-name="Component 14 – 5" transform="translate(0.399 0.4)">
    <path id="Path_599" data-name="Path 599" d="M21,13.994a7.505,7.505,0,0,1-6.875,7.466v1.9a.625.625,0,0,1-1.25,0v-1.9A7.505,7.505,0,0,1,6,13.994a.625.625,0,0,1,1.25,0,6.25,6.25,0,0,0,12.5,0,.625.625,0,0,1,1.25,0ZM13.506,17.72a3.753,3.753,0,0,0,3.75-3.746V7.73a3.75,3.75,0,0,0-7.5,0v6.244A3.753,3.753,0,0,0,13.506,17.72Zm-2.5-9.99a2.5,2.5,0,0,1,5,0v6.244a2.5,2.5,0,0,1-5,0Z" transform="translate(-3.275 -3.693)" fill="#c7c8c8" stroke="#c7c8c8" stroke-width="0.5"/>
    <g id="Line_30" data-name="Line 30" transform="translate(1 1)" fill="#c7c8c8" stroke-linecap="round">
      <path d="M 18 19.20000457763672 C 17.67947006225586 19.20000457763672 17.37812042236328 19.07518577575684 17.15147018432617 18.84852600097656 L -0.8485299944877625 0.8485352396965027 C -1.316390037536621 0.3806552290916443 -1.316390037536621 -0.3806547820568085 -0.8485299944877625 -0.8485347628593445 C -0.6218799948692322 -1.07518482208252 -0.3205299973487854 -1.199994802474976 0 -1.199994802474976 C 0.3205299973487854 -1.199994802474976 0.6218799948692322 -1.07518482208252 0.8485299944877625 -0.8485347628593445 L 18.84852981567383 17.15147590637207 C 19.3164005279541 17.61935615539551 19.3164005279541 18.38064575195312 18.84852981567383 18.84852600097656 C 18.62187957763672 19.07518577575684 18.32052993774414 19.20000457763672 18 19.20000457763672 Z" stroke="none"/>
      <path d="M 18 19.0000057220459 C 18.25592041015625 19.0000057220459 18.5118408203125 18.90237617492676 18.70710945129395 18.70710563659668 C 19.09762954711914 18.31657600402832 19.09762954711914 17.68342590332031 18.70710945129395 17.29289436340332 L 0.7071099877357483 -0.7071147561073303 C 0.3165799975395203 -1.097624778747559 -0.3165799975395203 -1.097624778747559 -0.7071099877357483 -0.7071147561073303 C -1.097630023956299 -0.3165747821331024 -1.097630023956299 0.3165752291679382 -0.7071099877357483 0.7071152329444885 L 17.29289054870605 18.70710563659668 C 17.4881591796875 18.90237617492676 17.74407958984375 19.0000057220459 18 19.0000057220459 M 18 19.40000534057617 C 17.62605094909668 19.40000534057617 17.27448081970215 19.25437545776367 17.01004981994629 18.98994445800781 L -0.9899500012397766 0.9899552464485168 C -1.535789966583252 0.4440852403640747 -1.535789966583252 -0.4440847635269165 -0.9899600148200989 -0.9899547696113586 C -0.7254999876022339 -1.254374742507935 -0.3739399909973145 -1.399994730949402 0 -1.399994730949402 C 0.3739500045776367 -1.399994730949402 0.7255200147628784 -1.254374742507935 0.9899500012397766 -0.9899647831916809 L 18.98995018005371 17.01005554199219 C 19.53580093383789 17.55591583251953 19.53580093383789 18.4440860748291 18.98995971679688 18.98994445800781 C 18.72551918029785 19.25437545776367 18.37394905090332 19.40000534057617 18 19.40000534057617 Z" stroke="none" fill="#2d2e2e"/>
    </g>
  </g>
</svg>
