<svg xmlns="http://www.w3.org/2000/svg" width="20.397" height="20.417" viewBox="0 0 20.397 20.417">
  <g id="Chat" transform="translate(0.001 0.024)">
    <g id="Group_561" data-name="Group 561" transform="translate(-0.001 -0.024)">
      <path id="Path_454" data-name="Path 454" d="M20.4,9.555A10.208,10.208,0,1,0,10.212,20.393h5.934A4.253,4.253,0,0,0,20.4,16.143Zm-1.7,6.589a2.55,2.55,0,0,1-2.55,2.55H10.212a8.533,8.533,0,0,1-6.353-2.841,8.428,8.428,0,0,1-2.1-6.641A8.535,8.535,0,0,1,9.111,1.766a8.978,8.978,0,0,1,1.1-.07,8.431,8.431,0,0,1,5.421,1.955A8.533,8.533,0,0,1,18.7,9.635Z" transform="translate(0.001 0.024)" fill="#ccc"/>
      <path id="Path_455" data-name="Path 455" d="M7.85,8.7h3.4a.85.85,0,0,0,0-1.7H7.85a.85.85,0,0,0,0,1.7Zm6.8,1.7H7.85a.85.85,0,0,0,0,1.7h6.8a.85.85,0,0,0,0-1.7Zm0,3.4H7.85a.85.85,0,1,0,0,1.7h6.8a.85.85,0,0,0,0-1.7Z" transform="translate(-1.05 -1.031)" fill="#ccc"/>
    </g>
    <g id="Group_562" data-name="Group 562" transform="translate(-0.001 -0.024)">
      <path id="Path_454-2" data-name="Path 454" d="M20.4,9.555A10.208,10.208,0,1,0,10.212,20.393h5.934A4.253,4.253,0,0,0,20.4,16.143Zm-1.7,6.589a2.55,2.55,0,0,1-2.55,2.55H10.212a8.533,8.533,0,0,1-6.353-2.841,8.428,8.428,0,0,1-2.1-6.641A8.535,8.535,0,0,1,9.111,1.766a8.978,8.978,0,0,1,1.1-.07,8.431,8.431,0,0,1,5.421,1.955A8.533,8.533,0,0,1,18.7,9.635Z" transform="translate(0.001 0.024)" fill="#ccc"/>
      <path id="Path_455-2" data-name="Path 455" d="M7.85,8.7h3.4a.85.85,0,0,0,0-1.7H7.85a.85.85,0,0,0,0,1.7Zm6.8,1.7H7.85a.85.85,0,0,0,0,1.7h6.8a.85.85,0,0,0,0-1.7Zm0,3.4H7.85a.85.85,0,1,0,0,1.7h6.8a.85.85,0,0,0,0-1.7Z" transform="translate(-1.05 -1.031)" fill="#ccc"/>
    </g>
  </g>
</svg>
