<svg xmlns="http://www.w3.org/2000/svg" xmlns:xlink="http://www.w3.org/1999/xlink" width="42" height="42" viewBox="0 0 42 42">
  <defs>
    <filter id="Rectangle_239" x="0" y="0" width="42" height="42" filterUnits="userSpaceOnUse">
      <feOffset dy="3" input="SourceAlpha"/>
      <feGaussianBlur stdDeviation="3" result="blur"/>
      <feFlood flood-opacity="0.161"/>
      <feComposite operator="in" in2="blur"/>
      <feComposite in="SourceGraphic"/>
    </filter>
  </defs>
  <g id="Group_1198" data-name="Group 1198" transform="translate(-5.177 -56.177)">
    <g transform="matrix(1, 0, 0, 1, 5.18, 56.18)" filter="url(#Rectangle_239)">
      <g id="Rectangle_239-2" data-name="Rectangle 239" transform="translate(9 6)" fill="#222423" stroke="#363739" stroke-width="0.5">
        <rect width="24" height="24" rx="12" stroke="none"/>
        <rect x="0.25" y="0.25" width="23.5" height="23.5" rx="11.75" fill="none"/>
      </g>
    </g>
    <g id="Group_631" data-name="Group 631" transform="translate(21.293 69.293)">
      <path id="Line_19" data-name="Line 19" d="M-.39,8.767a.609.609,0,0,1-.432-.179.61.61,0,0,1,0-.863L7.725-.821a.61.61,0,0,1,.863,0,.61.61,0,0,1,0,.863L.042,8.588A.609.609,0,0,1-.39,8.767Z" transform="translate(1 1)" fill="#ccc"/>
      <path id="Line_20" data-name="Line 20" d="M.61,9.767A.61.61,0,0,1,.179,8.725L8.725.179a.61.61,0,0,1,.863.863L1.042,9.588A.609.609,0,0,1,.61,9.767Z" transform="translate(9.767 0) rotate(90)" fill="#ccc"/>
    </g>
  </g>
</svg>
