<svg xmlns="http://www.w3.org/2000/svg" width="19.025" height="20.699" viewBox="0 0 19.025 20.699">
  <g id="Group_1188" data-name="Group 1188" transform="translate(-0.698 0.3)">
    <path id="Path_644" data-name="Path 644" d="M14.6,11.967,12.948,8.394H14.12a1.261,1.261,0,0,1,1.141.73l1.085,2.355a.419.419,0,0,0,.761-.35L16.022,8.774a2.1,2.1,0,0,0-1.9-1.218H11.166A2.1,2.1,0,0,0,9.372,8.571l-1.541,2.56a1.264,1.264,0,0,1-1.077.609H6.749l-1.978-.016h0a.419.419,0,1,0,0,.837l1.98.016h.008a2.1,2.1,0,0,0,1.8-1.014L9.807,9.474l2.326,5.048-1.7.962a2.1,2.1,0,0,0-1.062,1.821V19.68a.419.419,0,0,0,.837,0V17.306a1.258,1.258,0,0,1,.636-1.093l2.937-1.665a2.094,2.094,0,0,0,.811-2.58ZM13.354,13.83l-.491.278-2.5-5.415a1.252,1.252,0,0,1,.8-.3h.861l1.8,3.907a1.249,1.249,0,0,1-.473,1.527ZM4.768.837A2.934,2.934,0,0,0,1.837,3.768l0,15.911a.419.419,0,1,1-.837,0L1,3.768A3.773,3.773,0,0,1,4.768,0H12.3a3.773,3.773,0,0,1,3.768,3.768V5.443a.419.419,0,1,1-.837,0V3.768A2.934,2.934,0,0,0,12.3.837ZM7.7,4.606A2.094,2.094,0,1,0,9.792,2.512,2.1,2.1,0,0,0,7.7,4.606Zm3.35,0A1.256,1.256,0,1,1,9.792,3.35,1.258,1.258,0,0,1,11.049,4.606Zm8.374,11.724a.419.419,0,0,1-.419.419H16.271A2.081,2.081,0,0,1,14.4,15.591a.419.419,0,0,1,.749-.374,1.249,1.249,0,0,0,1.123.694H19A.419.419,0,0,1,19.423,16.329Z" transform="translate(0)" fill="#c7c8c8" stroke="#c7c8c8" stroke-width="0.6"/>
  </g>
</svg>
