<svg xmlns="http://www.w3.org/2000/svg" width="16.824" height="16.824" viewBox="0 0 16.824 16.824">
  <g id="Group_1419" data-name="Group 1419" transform="translate(-1.25 -1.25)">
    <g id="Group_1418" data-name="Group 1418" transform="translate(1.25 1.25)">
      <path id="Path_719" data-name="Path 719" d="M9.618,1.25h.089a35.694,35.694,0,0,1,4.327.149,4.467,4.467,0,0,1,2.722,1.169,4.46,4.46,0,0,1,1.169,2.723,35.673,35.673,0,0,1,.149,4.327v.089a35.694,35.694,0,0,1-.149,4.327,4.467,4.467,0,0,1-1.169,2.722,4.282,4.282,0,0,1-2.478,1.133,25.934,25.934,0,0,1-3.833.184.587.587,0,0,1,0-1.174,24.9,24.9,0,0,0,3.647-.169,3.124,3.124,0,0,0,1.836-.8,3.317,3.317,0,0,0,.837-2.049A35.449,35.449,0,0,0,16.9,9.662a35.449,35.449,0,0,0-.138-4.215,3.324,3.324,0,0,0-.837-2.05,3.322,3.322,0,0,0-2.049-.836,35.449,35.449,0,0,0-4.215-.138,35.464,35.464,0,0,0-4.215.138A3.319,3.319,0,0,0,3.4,3.4a3.121,3.121,0,0,0-.8,1.835,25,25,0,0,0-.17,3.647.587.587,0,0,1-1.174,0,26.129,26.129,0,0,1,.185-3.833A4.279,4.279,0,0,1,2.568,2.569,4.462,4.462,0,0,1,5.291,1.4a35.673,35.673,0,0,1,4.327-.149Z" transform="translate(-1.25 -1.25)" fill="#c7c8c8"/>
      <path id="Path_720" data-name="Path 720" d="M15.358,10.745a.587.587,0,0,1-.587.587H11.837a.587.587,0,0,1-.587-.587V7.811a.587.587,0,1,1,1.174,0V9.329l2.911-2.911a.587.587,0,1,1,.829.829l-2.911,2.911h1.518a.587.587,0,0,1,.587.587Z" transform="translate(-3.425 -2.333)" fill="#c7c8c8"/>
      <path id="Path_721" data-name="Path 721" d="M4.926,13.25a14.327,14.327,0,0,0-1.754.063,2.127,2.127,0,0,0-1.291.568,2.127,2.127,0,0,0-.568,1.291,14.327,14.327,0,0,0-.063,1.754v.081a14.347,14.347,0,0,0,.063,1.755,2.134,2.134,0,0,0,.567,1.291,2.139,2.139,0,0,0,1.291.567,14.347,14.347,0,0,0,1.755.063h.081a14.327,14.327,0,0,0,1.754-.063,2.127,2.127,0,0,0,1.291-.568,2.127,2.127,0,0,0,.568-1.291,14.327,14.327,0,0,0,.063-1.754v-.081a14.347,14.347,0,0,0-.063-1.755,2.134,2.134,0,0,0-.567-1.291,2.139,2.139,0,0,0-1.291-.567,14.347,14.347,0,0,0-1.755-.063ZM2.71,14.71a1,1,0,0,1,.618-.235,14.05,14.05,0,0,1,1.639-.052,13.858,13.858,0,0,1,1.639.052.985.985,0,0,1,.617.235.992.992,0,0,1,.235.617,14.072,14.072,0,0,1,.052,1.639,13.858,13.858,0,0,1-.052,1.639.985.985,0,0,1-.235.617.992.992,0,0,1-.617.235,14.072,14.072,0,0,1-1.639.052,14.072,14.072,0,0,1-1.639-.052,1,1,0,0,1-.617-.235,1,1,0,0,1-.235-.618,14.05,14.05,0,0,1-.052-1.639,13.858,13.858,0,0,1,.052-1.639.985.985,0,0,1,.235-.617Z" transform="translate(-1.25 -3.86)" fill="#c7c8c8" fill-rule="evenodd"/>
    </g>
  </g>
</svg>
