<svg xmlns="http://www.w3.org/2000/svg" width="15.05" height="19.919" viewBox="0 0 15.05 19.919">
  <g id="mic" transform="translate(-46.75 -832.644)">
    <g id="Component_14_26" data-name="Component 14 – 26" transform="translate(47 832.894)">
      <path id="Path_599" data-name="Path 599" d="M20.55,13.7a7.284,7.284,0,0,1-6.669,7.249V22.8a.606.606,0,1,1-1.212,0V20.952A7.284,7.284,0,0,1,6,13.7a.606.606,0,1,1,1.212,0,6.062,6.062,0,0,0,12.125,0,.606.606,0,0,1,1.212,0Zm-7.269,3.618a3.642,3.642,0,0,0,3.637-3.637V7.621a3.637,3.637,0,1,0-7.275,0v6.062A3.642,3.642,0,0,0,13.281,17.321Zm-2.425-9.7a2.425,2.425,0,0,1,4.85,0v6.062a2.425,2.425,0,0,1-4.85,0Z" transform="translate(-6 -3.984)" fill="#c7c8c8" stroke="#c7c8c8" stroke-width="0.5"/>
    </g>
  </g>
</svg>
