<svg id="Component_19_2" data-name="Component 19 – 2" xmlns="http://www.w3.org/2000/svg" width="16" height="16" viewBox="0 0 16 16">
  <g id="Group_1393" data-name="Group 1393">
    <path id="Path_712" data-name="Path 712" d="M16,4A3.337,3.337,0,0,0,12.667.667h-4A3.337,3.337,0,0,0,5.333,4v.391L1.138.2A.667.667,0,1,0,.2,1.138L14.862,15.8a.667.667,0,1,0,.943-.943l-.647-.647A3.318,3.318,0,0,0,16,12ZM6.667,4a2,2,0,0,1,2-2h4a2,2,0,0,1,2,2V9.335a3.331,3.331,0,0,0-4.215.173L6.667,5.724ZM11.4,10.454a2,2,0,0,1,2.815,2.815L11.4,10.454ZM6,8.666a.667.667,0,0,0-.667.667v0A3.332,3.332,0,1,0,6.667,12V9.333A.667.667,0,0,0,6,8.666ZM3.333,14a2,2,0,1,1,2-2A2,2,0,0,1,3.333,14Z" transform="translate(0 0)" fill="#c7c8c8"/>
  </g>
</svg>
