<svg id="Component_19_2" data-name="Component 19 – 2" xmlns="http://www.w3.org/2000/svg" width="16" height="14" viewBox="0 0 16 14">
  <path id="Path_711" data-name="Path 711" d="M12.667,1h-4A3.264,3.264,0,0,0,5.333,4.182V9.289a3.4,3.4,0,0,0-2-.653A3.26,3.26,0,0,0,0,11.818,3.26,3.26,0,0,0,3.333,15a3.26,3.26,0,0,0,3.333-3.182V4.182a1.956,1.956,0,0,1,2-1.909h4a1.956,1.956,0,0,1,2,1.909V9.289a3.4,3.4,0,0,0-2-.653,3.26,3.26,0,0,0-3.333,3.182A3.26,3.26,0,0,0,12.667,15,3.26,3.26,0,0,0,16,11.818V4.182A3.264,3.264,0,0,0,12.667,1ZM3.333,13.727a1.911,1.911,0,1,1,0-3.818,1.911,1.911,0,1,1,0,3.818Zm9.333,0a1.911,1.911,0,1,1,2-1.909A1.956,1.956,0,0,1,12.667,13.727Z" transform="translate(0 -1)" fill="#c7c8c8"/>
</svg>
