<svg xmlns="http://www.w3.org/2000/svg" width="26.939" height="26.939" viewBox="0 0 26.939 26.939">
  <g id="Group_1051" data-name="Group 1051" transform="translate(-0.004 13.47) rotate(-45)">
    <path id="Path_591" data-name="Path 591" d="M17.4,6.928,3.148.224A2.188,2.188,0,0,0,.137,2.944c.013.034,3.5,6.585,3.5,6.585S.215,16.079.2,16.112a2.185,2.185,0,0,0,3.009,2.716l14.187-6.7a2.872,2.872,0,0,0,0-5.2ZM1.614,2.356a.6.6,0,0,1,.842-.7L16.724,8.366a1.3,1.3,0,0,1,.469.367H5.013Zm15.109,8.338-14.2,6.7a.6.6,0,0,1-.842-.7L5.017,10.32H17.2a1.306,1.306,0,0,1-.474.374Z" transform="translate(0 0)" fill="#c7c8c8"/>
  </g>
</svg>
