<svg xmlns="http://www.w3.org/2000/svg" width="20.187" height="20.187" viewBox="0 0 20.187 20.187">
  <path id="Path_588" data-name="Path 588" d="M6.308,10.934a3.785,3.785,0,1,1,3.785-3.785,3.785,3.785,0,0,1-3.785,3.785Zm0-5.888a2.1,2.1,0,1,0,2.1,2.1A2.1,2.1,0,0,0,6.308,5.047Zm6.308,14.3v-.421A6.308,6.308,0,0,0,0,18.925v.421a.841.841,0,1,0,1.682,0v-.421a4.626,4.626,0,1,1,9.252,0v.421a.841.841,0,1,0,1.682,0Zm7.57-4.206a5.888,5.888,0,0,0-9.813-4.388A.841.841,0,1,0,11.5,12.005,4.206,4.206,0,0,1,18.5,15.14a.841.841,0,0,0,1.682,0ZM14.72,7.57A3.785,3.785,0,1,1,18.5,3.785,3.785,3.785,0,0,1,14.72,7.57Zm0-5.888a2.1,2.1,0,1,0,2.1,2.1A2.1,2.1,0,0,0,14.72,1.682Z" fill="#c7c8c8"/>
</svg>
