<svg xmlns="http://www.w3.org/2000/svg" width="24.015" height="24" viewBox="0 0 24.015 24">
  <g id="Group_1433" data-name="Group 1433" transform="translate(-535 -4242)">
    <rect id="Rectangle_447" data-name="Rectangle 447" width="24" height="24" transform="translate(535 4242)" fill="none"/>
    <g id="Component_29_2" data-name="Component 29 – 2" transform="translate(535 4246)">
      <path id="Path_713" data-name="Path 713" d="M22.917,6.54a1.971,1.971,0,0,0-2.078.188,1.009,1.009,0,0,0-.11.1L18.971,8.6A4.993,4.993,0,0,0,14.009,4H5A5.007,5.007,0,0,0,0,9v6a5.009,5.009,0,0,0,5,5h9.006a4.993,4.993,0,0,0,4.965-4.63l1.757,1.755a1.178,1.178,0,0,0,.107.092,1.986,1.986,0,0,0,3.177-1.588V8.317a1.973,1.973,0,0,0-1.1-1.776ZM14.009,18.009H5a3.006,3.006,0,0,1-3-3V9A3.006,3.006,0,0,1,5,6h9.006a3.006,3.006,0,0,1,3,3v6A3.006,3.006,0,0,1,14.009,18.009Zm5-5.42V11.4l3-3.03.025,7.242-3.027-3.024Z" transform="translate(0 -4.001)" fill="#c7c8c8"/>
    </g>
  </g>
</svg>
