<svg xmlns="http://www.w3.org/2000/svg" width="24.015" height="24" viewBox="0 0 24.015 24">
  <g id="video_off" data-name="video off" transform="translate(-535 -4242)">
    <rect id="Rectangle_447" data-name="Rectangle 447" width="24" height="24" transform="translate(535 4242)" fill="none"/>
    <g id="Component_29_2" data-name="Component 29 – 2" transform="translate(535 4243.991)">
      <path id="Path_713" data-name="Path 713" d="M22.917,6.54a1.971,1.971,0,0,0-2.078.188,1.009,1.009,0,0,0-.11.1L18.971,8.6A4.993,4.993,0,0,0,14.009,4H5A5.007,5.007,0,0,0,0,9v6a5.009,5.009,0,0,0,5,5h9.006a4.993,4.993,0,0,0,4.965-4.63l1.757,1.755a1.178,1.178,0,0,0,.107.092,1.986,1.986,0,0,0,3.177-1.588V8.317a1.973,1.973,0,0,0-1.1-1.776ZM14.009,18.009H5a3.006,3.006,0,0,1-3-3V9A3.006,3.006,0,0,1,5,6h9.006a3.006,3.006,0,0,1,3,3v6A3.006,3.006,0,0,1,14.009,18.009Zm5-5.42V11.4l3-3.03.025,7.242-3.027-3.024Z" transform="translate(0 -1.992)" fill="#c7c8c8"/>
      <g id="Off" transform="translate(0.015 -2)">
        <path id="Path_714" data-name="Path 714" d="M15,19a1,1,0,0,1-1,1H5a5.006,5.006,0,0,1-5-5V9A5.016,5.016,0,0,1,.625,6.577a1,1,0,0,1,1.749.971A3,3,0,0,0,2,9v6a3,3,0,0,0,3,3h9A1,1,0,0,1,15,19Zm3.637-2.125a1.027,1.027,0,0,1-.129.218l2.2,2.2a1,1,0,1,1-1.414,1.414l-15-15-2-2A1,1,0,1,1,3.708,2.293L5.415,4H14a4.991,4.991,0,0,1,4.959,4.594l1.757-1.772a1.116,1.116,0,0,1,.109-.1A1.984,1.984,0,0,1,24,8.313v7.319a1.984,1.984,0,0,1-3.175,1.587,1.028,1.028,0,0,1-.106-.092l-1.754-1.752a4.939,4.939,0,0,1-.328,1.5ZM19,12.583l3.026,3.022L22,8.367l-3,3.027v1.189ZM17,9a3,3,0,0,0-3-3H7.414l9.535,9.535A3.06,3.06,0,0,0,17,15Z" fill="#c7c8c8"/>
      </g>
    </g>
  </g>
</svg>
